<?xml version="1.0" encoding="utf-8"?>
<svg viewBox="98.968 -106.9073 784.5 675.1723" xmlns="http://www.w3.org/2000/svg">
  <path fill="none" opacity="1.000000" stroke="#000000" stroke-linecap="round" stroke-linejoin="round" stroke-width="5.000000" d="M 821.468 15.765 C 823.132 16.07 824.31 17.082 825.486 18.247 C 838.124 30.776 850.757 43.311 863.512 55.72 C 865.618 57.768 866.519 59.819 866.525 62.765 C 866.612 112.932 866.809 163.099 866.962 213.265 C 867 225.765 866.969 238.265 866.966 250.765 C 866.965 252.578 867.033 254.251 865.508 255.805 C 855.929 265.56 846.452 275.417 836.971 285.268 C 811.795 311.426 786.496 337.467 761.522 363.816 C 747.41 378.705 733.232 393.524 719.022 408.317 C 686.518 442.153 654.311 476.274 621.955 510.253 C 618.217 514.178 614.301 517.932 610.473 521.765 C 611.675 527.401 610.94 533.096 610.959 538.765 C 610.991 548.599 610.968 558.432 610.968 568.265"/>
  <path fill="none" opacity="1.000000" stroke="#000000" stroke-linecap="round" stroke-linejoin="round" stroke-width="4.000000" d="M 139.968 -4.235 C 147.183 1.707 154.398 7.649 161.597 13.577 C 154.063 23.15 145.284 31.28 136.812 39.607 C 128.828 47.454 121.811 56.302 112.937 63.226 C 111.257 64.537 111.473 66.111 111.472 67.765 C 111.467 129.599 111.488 191.432 111.403 253.265 C 111.399 256.128 112.675 257.932 114.457 259.776 C 122.482 268.085 130.451 276.449 138.472 284.761 C 148.621 295.278 158.791 305.775 168.97 316.264 C 202.131 350.435 235.323 384.577 268.459 418.774 C 286.176 437.059 303.789 455.443 321.471 473.762 C 336.942 489.79 352.444 505.788 367.415 521.265 C 379.129 521.265 390.299 521.265 401.468 521.265"/>
  <path fill="none" opacity="1.000000" stroke="#000000" stroke-linecap="round" stroke-linejoin="round" stroke-width="5.000000" d="M 883.468 26.265 C 877.714 19.686 871.538 13.528 864.964 7.77 C 864.162 7.068 863.237 6.497 862.477 5.756 C 847.631 -8.731 832.858 -23.293 817.955 -37.721 C 795.005 -59.939 771.948 -82.048 748.993 -104.261 C 746.187 -106.976 742.747 -106.662 739.468 -106.679 C 718.801 -106.789 698.124 -107.16 677.471 -106.627 C 651.965 -105.968 626.467 -106.297 600.968 -106.275 C 492.135 -106.18 383.301 -106.165 274.468 -106.344 C 263.81 -106.361 253.136 -106.635 242.468 -106.734 C 237.894 -106.776 234.258 -105.596 230.844 -101.848 C 219.336 -89.217 207.287 -77.082 195.471 -64.731 C 177.625 -46.077 159.796 -27.406 141.97 -8.733 C 128.294 5.592 114.637 19.935 100.961 34.258 C 100.109 35.151 99.183 35.965 98.968 37.265"/>
  <path fill="none" opacity="1.000000" stroke="#000000" stroke-linecap="round" stroke-linejoin="round" stroke-width="4.000000" d="M 302.468 -20.735 C 311.592 -22.223 320.85 -21.193 329.972 -21.264 C 336.786 -21.317 343.675 -17.179 350.46 -14.712 C 366.318 -8.949 382.111 -3.002 397.974 2.748 C 416.114 9.323 434.315 15.729 452.442 22.336 C 453.861 22.854 455.147 22.729 456.468 22.731 C 480.801 22.778 505.135 22.662 529.467 22.853 C 534.293 22.891 538.291 20.718 542.424 19.151 C 574.836 6.858 607.139 -5.723 639.464 -18.245 C 645.448 -20.564 651.376 -21.446 657.987 -21.097 C 663.321 -20.816 669.069 -19.727 674.468 -21.735"/>
  <path fill="none" opacity="1.000000" stroke="#000000" stroke-linecap="round" stroke-linejoin="round" stroke-width="5.000000" d="M 600.468 402.765 C 531.468 402.765 462.468 402.765 393.468 402.765 C 391.134 402.765 388.801 402.765 386.468 402.765"/>
  <path fill="none" opacity="1.000000" stroke="#000000" stroke-linecap="round" stroke-linejoin="round" stroke-width="4.000000" d="M 609.968 522.265 C 600.151 521.141 590.3 521.987 580.467 521.832 C 578.245 521.797 576.536 521.659 574.917 519.81 C 570.567 514.845 565.826 510.221 561.524 505.217 C 559.147 502.452 556.535 501.632 552.967 501.689 C 532.469 502.013 511.953 501.672 491.472 502.377 C 467.788 503.194 444.136 501.621 420.466 502.197 C 417.351 502.273 415.179 502.816 413.378 505.709 C 410.55 510.253 407.048 514.373 404.023 518.803 C 403.166 520.058 402.347 521.352 402.372 523.267 C 402.553 536.598 402.454 549.932 402.49 563.265 C 402.493 564.599 402.801 565.932 402.968 567.265"/>
  <path fill="none" opacity="1.000000" stroke="#000000" stroke-linecap="round" stroke-linejoin="round" stroke-width="5.000000" d="M 814.468 176.265 C 814.635 195.432 814.774 214.599 814.997 233.765 C 815.03 236.633 814.556 238.721 812.07 240.883 C 804.783 247.219 797.96 254.091 790.974 260.772 C 789.643 262.045 788.467 263.514 786.468 263.765"/>
  <path fill="none" opacity="1.000000" stroke="#000000" stroke-linecap="round" stroke-linejoin="round" stroke-width="5.000000" d="M 789.468 47.265 C 796.284 55.259 804.266 62.144 811.087 70.164 C 813.75 73.295 815.108 76.118 815.061 80.266 C 814.849 99.264 814.968 118.265 814.968 137.265"/>
  <path fill="none" opacity="1.000000" stroke="#000000" stroke-linecap="round" stroke-linejoin="round" stroke-width="5.000000" d="M 166.468 172.265 C 166.301 174.099 165.994 175.932 165.99 177.765 C 165.952 193.765 166.552 209.797 165.675 225.749 C 165.333 231.965 167.688 235.515 171.452 239.281 C 178.619 246.452 186.045 253.381 192.468 261.265"/>
  <path fill="none" opacity="1.000000" stroke="#000000" stroke-linecap="round" stroke-linejoin="round" stroke-width="4.000000" d="M 191.468 42.765 C 183.634 51.432 175.971 60.263 167.856 68.658 C 165.645 70.946 165.461 73.121 165.463 75.765 C 165.472 93.932 165.468 112.099 165.468 130.265"/>
  <path fill="none" opacity="1.000000" stroke="#000000" stroke-linecap="round" stroke-linejoin="round" stroke-width="5.000000" d="M 685.468 -56.235 C 693.968 -47.568 702.441 -38.875 710.973 -30.24 C 727.954 -13.055 744.994 4.073 761.896 21.335 C 762.821 22.28 763.556 22.127 764.468 22.265"/>
  <path fill="none" opacity="1.000000" stroke="#000000" stroke-linecap="round" stroke-linejoin="round" stroke-width="3.000000" d="M 289.968 -56.735 C 265.968 -33.068 241.969 -9.4 217.965 14.262 C 216.935 15.278 216.066 16.537 214.468 16.765"/>
  <path fill="none" opacity="1.000000" stroke="#000000" stroke-linecap="round" stroke-linejoin="round" stroke-width="4.000000" d="M 762.468 287.265 C 763.025 290.195 760.443 291.213 758.932 292.73 C 737.318 314.448 715.635 336.099 693.968 357.765"/>
  <path fill="none" opacity="1.000000" stroke="#000000" stroke-linecap="round" stroke-linejoin="round" stroke-width="4.000000" d="M 215.468 283.265 C 238.435 305.966 260.755 329.322 284.468 351.265"/>
  <path fill="none" opacity="1.000000" stroke="#000000" stroke-linecap="round" stroke-linejoin="round" stroke-width="4.000000" d="M 744.468 -105.235 C 734.135 -96.735 723.871 -88.148 713.45 -79.757 C 701.529 -70.159 689.4 -60.818 677.524 -51.166 C 675.109 -49.203 672.483 -49.449 669.963 -49.33 C 663.81 -49.038 657.635 -49.235 651.009 -49.235 C 649.751 -40.286 649.565 -31.28 650.468 -22.235"/>
  <path fill="none" opacity="1.000000" stroke="#000000" stroke-linecap="round" stroke-linejoin="round" stroke-width="4.000000" d="M 236.468 -105.235 C 243.161 -98.013 251.026 -92.113 258.466 -85.732 C 270.307 -75.575 282.49 -65.777 293.812 -55.069 C 299.134 -50.036 304.82 -48.715 311.468 -48.732 C 316.134 -48.745 320.809 -48.572 325.465 -48.792 C 328.593 -48.939 329.605 -47.848 329.528 -44.733 C 329.342 -37.238 329.468 -29.735 329.468 -22.235"/>
  <path fill="none" opacity="1.000000" stroke="#000000" stroke-linecap="round" stroke-linejoin="round" stroke-width="4.000000" d="M 367.968 522.265 C 366.984 526.567 367.575 530.929 367.459 535.265 C 367.182 545.597 368.075 555.946 367.034 566.272 C 367.006 566.552 367.968 566.932 368.468 567.265"/>
  <path fill="none" opacity="1.000000" stroke="#000000" stroke-linecap="round" stroke-linejoin="round" stroke-width="4.000000" d="M 577.968 522.765 C 576.498 529.399 577.732 536.102 577.449 542.764 C 577.087 551.263 578.05 559.783 576.968 568.265"/>
  <path fill="none" opacity="1.000000" stroke="#000000" stroke-linecap="round" stroke-linejoin="round" stroke-width="5.000000" d="M 311.468 381.265 C 317.634 387.599 323.935 393.809 329.905 400.323 C 332.498 403.152 335.32 403.99 338.971 403.825 C 344.127 403.591 349.301 403.765 354.468 403.765"/>
  <path fill="none" opacity="1.000000" stroke="#000000" stroke-linecap="round" stroke-linejoin="round" stroke-width="4.000000" d="M 670.968 381.265 C 664.301 387.765 657.479 394.117 651.058 400.852 C 649.024 402.985 647.016 403.319 644.468 403.286 C 639.135 403.217 633.801 403.265 628.468 403.265"/>
  <path fill="none" opacity="1.000000" stroke="#000000" stroke-linecap="round" stroke-linejoin="round" stroke-width="4.000000" d="M 272.468 -71.735 C 248.172 -48.196 223.875 -24.658 199.288 -0.838 C 187.033 -9.974 175.756 -20.111 164.468 -30.235"/>
  <path fill="none" opacity="1.000000" stroke="#000000" stroke-linecap="round" stroke-linejoin="round" stroke-width="5.000000" d="M 706.968 -73.235 C 732.722 -47.988 758.475 -22.742 784.734 2.999 C 796.297 -8.563 808.632 -20.899 820.968 -33.235"/>
  <path fill="none" opacity="1.000000" stroke="#000000" stroke-linecap="round" stroke-linejoin="round" stroke-width="4.000000" d="M 781.968 -71.235 C 769.968 -59.235 757.968 -47.235 745.968 -35.235"/>
  <path fill="none" opacity="1.000000" stroke="#000000" stroke-linecap="round" stroke-linejoin="round" stroke-width="4.000000" d="M 201.968 -69.235 C 213.968 -59.568 225.968 -49.901 237.968 -40.235"/>
</svg>